PathFileType	4	(X/Y/Z)	Patient4_TMGait_0pt3_03_left_08.trc.trc
DataRate	CameraRate	NumFrames	NumMarkers	Units	OrigDataRate	OrigDataStartFrame	OrigNumFrames
51.660516605166	51.660516605166	6	33	mm	51.660516605166	1	       141
Frame#	Time	Sacral			L.Shoulder			Chest			R.Shoulder			Neck			R.ASIS			L.ASIS			R.Thigh.Superior			R.Thigh.Lateral			R.Thigh.Inferior			R.Patella			L.Thigh.Superior			L.Thigh.Lateral			L.Thigh.Inferior			L.Patella			L.Shank.Superior			L.Shank.Lateral			L.Shank.Inferior			R.Shank.Superior			R.Shank.Lateral			R.Shank.Inferior			R.Heel			R.Midfoot.Superior			R.Midfoot.Lateral			R.Toe			L.Heel			L.Midfoot.Lateral			L.Midfoot.Superior			L.Toe			L.Elbow			L.Wrist			R.Elbow			R.Wrist			
		X1	Y1	Z1	X2	Y2	Z2	X3	Y3	Z3	X4	Y4	Z4	X5	Y5	Z5	X6	Y6	Z6	X7	Y7	Z7	X8	Y8	Z8	X9	Y9	Z9	X10	Y10	Z10	X11	Y11	Z11	X12	Y12	Z12	X13	Y13	Z13	X14	Y14	Z14	X15	Y15	Z15	X16	Y16	Z16	X17	Y17	Z17	X18	Y18	Z18	X19	Y19	Z19	X20	Y20	Z20	X21	Y21	Z21	X22	Y22	Z22	X23	Y23	Z23	X24	Y24	Z24	X25	Y25	Z25	X26	Y26	Z26	X27	Y27	Z27	X28	Y28	Z28	X29	Y29	Z29	X30	Y30	Z30	X31	Y31	Z31	X32	Y32	Z32	X33	Y33	Z33	

1	14.110000000000	759.256388742279	1002.965767738425	562.335486061425	955.233633513218	1429.418657988611	386.697892455853	1046.140090147293	1361.298849411463	554.054659298231	953.849419678892	1436.404859582114	722.213941902987	927.471931205200	1492.265050468759	543.224407290762	986.709070058326	936.069917155613	685.587770636684	979.863680292085	960.636779314746	412.680533427691	1036.618156007709	739.244431312386	645.625143066982	957.259337326567	623.761797273215	695.191278530635	1037.385052762586	578.129012698637	613.204985469463	1041.180449074178	486.379178390908	613.670757858851	1053.010114047053	765.323220985134	446.499247166015	1004.084347017501	642.527226475677	363.705957304594	1095.254318932143	571.409739667740	434.736019360618	1100.541836688600	481.780176487791	422.871101789140	1031.240825773916	421.909299388822	403.631261529474	889.967648894674	388.515678196599	346.958958269397	873.240315300052	253.908749461348	387.753484401958	1004.188801197952	398.664984315050	615.550218314485	927.246407967508	297.139632540843	674.597654566886	958.894056933212	203.351151771896	604.762222508011	811.724608486779	44.414190530889	572.813313561031	984.674606428515	96.938841256033	606.367156781095	896.690543595310	37.563876620403	645.357768473901	1104.809868071429	42.059698845358	630.844615292971	680.410285029199	187.445802815775	415.866883114543	738.972841952334	153.212171780032	330.646058220446	844.401220358602	156.855202172825	354.085203785381	921.430274263518	48.894824013355	310.450497113704	991.302019604545	1073.976612589408	277.019373301769	1145.969535825766	861.023818501890	283.834820220857	926.078679662965	1093.732559867217	860.397365102978	1069.445455563247	877.342388749337	899.926132471257	
2	14.129357142857	758.221118896470	1001.974678446059	566.091164108510	951.396104586328	1428.538164006606	388.798025377792	1044.422750165358	1360.746741707163	555.122960075222	954.072145279399	1435.600507161435	724.457921665953	925.555770453787	1491.558742563671	545.679914948668	986.685473684462	935.376977251909	687.495840355424	977.681968033529	960.244163865999	414.763177629672	1036.028202310451	738.457112276165	647.165015674360	956.958306020817	622.826082438257	696.904543740510	1036.849071145827	577.292679801332	614.775359471966	1040.346447819009	485.024998049748	615.377906089932	1052.694673351835	767.053392934398	447.383450996535	1005.371136746949	643.804075563379	364.104944923475	1098.398175001837	574.457498347709	434.033938810076	1105.786362682449	485.608419200117	421.864491699954	1039.015980821178	423.974763681668	403.123200741944	899.217070830705	384.095486351444	348.290151229841	889.858804915780	249.078825247566	388.561104251481	1002.182190891316	397.515779245212	616.884060962816	923.845299581797	296.751230081472	675.611835958414	954.597907187493	202.892197933716	605.477390687394	805.880805629391	44.583215706150	572.896502734304	979.069930725954	96.978483047071	606.584301841672	890.769817339908	37.579878098438	645.377729468493	1098.891841399995	41.889001450913	630.889019450898	701.840654943010	172.800164906881	419.048328800945	760.608889445231	142.133646155179	332.893104602253	865.468564586668	151.408933245010	354.976411975247	947.315338142184	48.485106723127	309.738501668626	973.571533433737	1072.067526763473	280.666244387410	1107.930610896576	849.498018751387	287.242799395901	937.284213563882	1092.234301150534	861.890264029798	1093.440274779330	886.595267143469	898.861132011883	
3	14.148714285714	757.163019870560	1000.926917695289	569.859039361169	947.466806001259	1427.655335859014	390.923747136527	1042.647666700843	1360.133567850767	556.164764921739	954.285012565243	1434.700355784279	726.704754108766	923.595258081529	1490.806859450206	548.161448213832	986.638781320281	934.669579950438	689.370823274070	975.421169701568	959.766492715549	416.799285587856	1035.345096004046	737.629587903431	648.675840782619	956.566193855821	621.852385319791	698.636068024109	1036.199947545701	576.406570667246	616.336849886053	1039.383971196486	483.621942561110	617.078871886244	1052.226708832507	768.697594227985	448.240907964934	1006.501416832538	645.023038967008	364.444360447499	1101.342380061372	577.456784085418	433.292822420711	1110.895546094997	489.468834470234	420.807863670523	1046.808331945410	426.047567453222	402.535108489825	908.756977801465	379.424523979832	349.436207615091	907.016534628769	244.142842445685	389.198930756968	1000.028846173745	396.311895693633	618.210154660001	920.294582000685	296.326384210075	676.616888646777	950.137788455277	202.397541311740	606.186342929802	799.869289360944	44.735976812413	572.979353415183	973.294895497931	97.009443871538	606.789564505744	884.690969627375	37.587349821647	645.402395786251	1092.814726438820	41.732165532281	630.929481490743	724.152280670769	157.841464378030	421.939439484942	783.167814190682	130.797172043996	334.894891339140	887.319612116450	145.854896105398	355.686897638312	974.058206768881	48.152181631938	308.939788321933	955.258404674215	1070.443935813460	284.218135468511	1069.099421145828	838.661396228178	290.698032356651	948.861448659690	1090.734959224934	863.243643773709	1117.965117179772	896.489388029524	897.446782011922	
4	14.168071428571	756.099100888135	999.846880601709	573.514707567472	943.514167847435	1426.816761636296	393.017251013903	1040.839139364745	1359.470643639575	557.125757488136	954.481038775782	1433.708585582720	728.877784214820	921.624826362495	1490.028583045571	550.600486999086	986.552380217098	933.971595355810	691.126408672483	973.114020037891	959.198924508032	418.692157258002	1034.537728284088	736.778699464714	650.094478735226	956.032031627513	620.866666582806	700.332063253768	1035.385518072922	575.483440466099	617.836085912889	1038.236370539068	482.202251582492	618.719735737951	1051.541898239353	770.169047396894	449.017205235528	1007.340626277770	646.122483392453	364.674180076248	1103.875608748172	580.281159263690	432.503449846961	1115.611776827830	493.255036163595	419.705234085186	1054.353882619369	428.081021567341	401.846824171098	918.423822164157	374.552722944361	350.262296185214	924.425369975426	239.245959002680	389.567153619580	997.705067863552	395.078291854278	619.485667033512	916.613677325567	295.873252983557	677.577576900281	945.557892830952	201.875468811425	606.866935375660	793.789128407314	44.866225006365	573.060517805342	967.438153058728	97.024257305526	606.969142814054	878.558231314249	37.584101518780	645.432960465866	1086.682532701281	41.598370130689	630.962943709223	747.076538580249	142.945201587429	424.300319710600	806.400699199075	119.485037826449	336.473785985139	909.648750176050	140.362886094462	356.117243172727	1001.235412730146	47.995105909095	308.074887026731	936.677547931241	1069.325433270802	287.529084143980	1030.356762091509	829.219685756690	294.117009850284	960.631378972141	1089.324172990141	864.339202926274	1142.470399195519	907.100670659142	895.537677828462	
5	14.187428571429	755.042176138746	998.766531184280	576.957149357042	939.579293484126	1426.072537552145	395.031977828614	1039.011481064411	1358.782261202832	557.956602287878	954.658451208209	1432.643483976295	730.913003762435	919.665712872350	1489.250900859165	552.942510595779	986.412436484244	933.310560772271	692.683668929363	970.791439741222	958.557162683090	420.357186886419	1033.577355393318	735.921952712247	651.373923147326	955.303448639682	619.898130257499	701.946964802702	1034.352122252089	574.538690544454	619.232157733964	1036.842792399742	480.798404939173	620.258690112812	1050.588501278686	771.408495090234	449.668362595243	1007.778884290959	647.062113451972	364.753403334936	1105.826977566581	582.830947355586	431.653015322035	1119.719527111087	496.886567838834	418.557763375336	1061.433308637501	430.051136996886	401.044516310628	928.088856896701	369.544012074567	350.663858630098	941.852981123020	234.537381313622	389.594889062578	995.177404770601	393.842368474055	620.677901083941	912.804233764939	295.405378148374	678.468173503225	940.880881313623	201.339044629722	607.504525095645	787.708119512891	44.973254148817	573.140163201596	961.557602220454	97.015962434984	607.110787440975	872.442847748424	37.569144473095	645.470631021313	1080.566056036772	41.492520339039	630.987308144844	770.400138650874	128.456201569526	425.953169347438	830.113399415605	108.468408414565	337.502887214329	932.213960098072	135.110002389067	356.201422063160	1028.507361271261	48.136214566378	307.178907077587	918.087231013391	1068.904290503278	290.494018757306	992.422379912177	821.727943896184	297.435919197238	972.463459607581	1088.103260673766	865.084828116068	1166.508845371544	918.542908952968	893.012546198139	
6	14.206785714286	754.000642668313	997.726905897370	580.111586636399	935.679325210156	1425.474183838869	396.932519596590	1037.171235046155	1358.107350333389	558.615871374217	954.820642673313	1431.541290516715	732.760524260938	917.727132034554	1488.509600405214	555.147166112590	986.209901000466	932.717724625409	693.976499773212	968.480651947049	957.878291820482	421.728573647806	1032.441181283454	735.078854989321	652.484295758675	954.331015942689	618.980042057708	703.443532959336	1033.049154062304	573.591872806410	620.497539060711	1035.143227127427	479.444118544866	621.667268925540	1049.335803829217	772.390138110254	450.160017632233	1007.739467332768	647.825809525742	364.652987407018	1107.079339102729	585.039040320171	430.725325258974	1123.058574669892	500.310542442403	417.364901265085	1067.879034522556	431.956792551915	400.123992708787	937.650124812437	364.482166696492	350.577246608701	959.108949011765	230.165804852692	389.249273718974	992.408021680648	392.635907293041	621.765443342940	908.854142402151	294.942647569335	679.273075640606	936.112757103125	200.807183193669	608.092277852791	781.666318660021	45.062373030941	573.219799547562	955.684879433416	96.979453207604	607.205532573107	866.385883660471	37.543195649568	645.516121326423	1074.505688602194	41.414783518332	631.001773149995	793.936215313607	114.682508568647	426.799475108201	854.136061203141	98.001298943728	337.920329058632	954.813557523671	130.274003116805	355.916582404208	1055.597573840704	48.709387083648	306.305774181496	899.701891747126	1069.323968790988	293.057863441815	955.854039062084	816.539545146576	300.612021548879	984.265650406069	1087.182332361758	865.422570982102	1189.731738142061	930.937253262869	889.791360914608	
